<svg xmlns="http://www.w3.org/2000/svg" viewBox="0 0 100 100" width="100" height="100">
  <circle cx="50" cy="50" r="48" fill="#0a0e1a" stroke="#f5c518" stroke-width="2.5"/>
  <!-- Golden soccer ball patterns -->
  <path d="M50 2 A48 48 0 0 0 50 98 A48 48 0 0 0 50 2 Z" fill="none" stroke="#f5c518" stroke-width="1.5" stroke-opacity="0.15"/>
  <polygon points="50,38 61,46 57,59 43,59 39,46" fill="#f5c518" stroke="#f5c518" stroke-width="1.5"/>
  <line x1="50" y1="38" x2="50" y2="22" stroke="#f5c518" stroke-width="1.5"/>
  <line x1="61" y1="46" x2="76" y2="41" stroke="#f5c518" stroke-width="1.5"/>
  <line x1="57" y1="59" x2="66" y2="73" stroke="#f5c518" stroke-width="1.5"/>
  <line x1="43" y1="59" x2="34" y2="73" stroke="#f5c518" stroke-width="1.5"/>
  <line x1="39" y1="46" x2="24" y2="41" stroke="#f5c518" stroke-width="1.5"/>
  <!-- Outer panel lines -->
  <path d="M50,22 C37,22 26,30 24,41 M76,41 C74,30 63,22 50,22 M76,41 C79,53 74,66 66,73 M34,73 C26,66 21,53 24,41 M34,73 C44,79 56,79 66,73" fill="none" stroke="#f5c518" stroke-width="1.5"/>
</svg>
